
<svg version="1.1" id="Layer_1" xmlns="http://www.w3.org/2000/svg" xmlns:xlink="http://www.w3.org/1999/xlink" x="0px" y="0px"
	 width="12.438px" height="14px" viewBox="1.562 0 12.438 14" enable-background="new 1.562 0 12.438 14" xml:space="preserve">

<g id="Your_Icon" opacity="0.6" fill='purple'>
	<path d="M10.134,7.197C10.1,6.861,10.048,6.525,9.993,6.191c-0.019-0.1-0.034-0.209-0.052-0.32C9.922,5.744,9.904,5.619,9.869,5.48
		C9.849,5.421,9.834,5.353,9.815,5.285c0-0.084-0.02-0.182-0.033-0.279C9.886,5.06,9.993,5.117,10.1,5.171
		c0.088,0.07,0.179,0.154,0.266,0.236c0.072,0.086,0.141,0.184,0.212,0.281c0.054,0.109,0.107,0.234,0.18,0.359
		c0.054,0.143,0.125,0.279,0.193,0.436c0.035,0.14,0.088,0.277,0.142,0.418c0.018,0.084,0.034,0.182,0.054,0.277
		c0.02,0.1,0.035,0.195,0.053,0.293c0,0.099,0,0.195-0.018,0.292c0,0.029,0,0.071-0.02,0.113c-0.018,0.025-0.035,0.068-0.071,0.109
		h0.02c-0.035,0.057-0.055,0.142-0.055,0.195c0,0.279,0.302,0.502,0.641,0.502c0.336,0,0.617-0.223,0.617-0.488
		c0-0.125-0.019-0.223-0.107-0.318c0,0.014,0,0.025,0.021,0.041c-0.034-0.041-0.073-0.083-0.125-0.141
		c-0.02-0.026-0.034-0.057-0.054-0.084c0-0.056-0.019-0.109-0.034-0.182c0-0.055,0-0.125-0.019-0.195c0-0.182,0-0.361-0.019-0.559
		c0-0.111,0-0.225-0.021-0.35c-0.031-0.236-0.069-0.476-0.122-0.711c-0.035-0.195-0.088-0.393-0.143-0.586
		c-0.034-0.111-0.071-0.227-0.123-0.336c-0.056-0.153-0.107-0.309-0.179-0.461c-0.053-0.125-0.125-0.25-0.195-0.392
		c-0.033-0.099-0.089-0.194-0.141-0.31c-0.072-0.082-0.14-0.179-0.213-0.277c-0.052-0.057-0.126-0.125-0.196-0.193
		c-0.069-0.041-0.159-0.085-0.245-0.141c-0.072-0.028-0.159-0.069-0.246-0.109c-0.088-0.029-0.18-0.059-0.266-0.085
		C9.76,2.781,9.639,2.752,9.515,2.724C9.389,2.71,9.244,2.699,9.104,2.668c-0.087,0-0.18-0.016-0.265-0.026
		C8.805,2.626,8.751,2.613,8.697,2.599C8.681,2.572,8.661,2.543,8.645,2.515V2.291c0-0.083,0-0.167,0.017-0.268
		c0,0-0.017,0.017-0.034,0.029C9,1.843,9.248,1.492,9.248,1.117C9.248,0.503,8.609,0,7.847,0C7.102,0,6.465,0.503,6.465,1.117
		c0,0.363,0.229,0.711,0.603,0.92c0,0-0.018,0-0.035-0.014c0,0.168,0,0.336,0.02,0.502c0,0.016,0,0.043-0.02,0.069
		c-0.019,0-0.034,0.015-0.071,0.026C6.892,2.637,6.819,2.648,6.73,2.664C6.625,2.678,6.517,2.691,6.393,2.706
		C6.286,2.72,6.182,2.748,6.054,2.773c-0.125,0.028-0.247,0.07-0.372,0.112c-0.086,0.042-0.18,0.083-0.284,0.126
		C5.326,3.053,5.257,3.095,5.166,3.137C5.148,3.15,5.112,3.179,5.078,3.207C5.026,3.248,4.971,3.305,4.919,3.359
		C4.865,3.428,4.812,3.5,4.76,3.568C4.726,3.667,4.672,3.762,4.619,3.863c-0.054,0.125-0.127,0.25-0.195,0.391
		C4.372,4.406,4.3,4.574,4.23,4.742C4.177,4.908,4.125,5.076,4.052,5.244c-0.033,0.195-0.07,0.404-0.124,0.615
		C3.909,5.984,3.892,6.123,3.855,6.261c0,0.125-0.018,0.251-0.033,0.378v0.919c-0.02,0.044-0.035,0.099-0.054,0.153
		C3.732,7.768,3.679,7.823,3.625,7.896l0.019-0.017C3.625,7.907,3.61,7.937,3.572,7.964c0,0.016-0.017,0.041-0.035,0.068
		c0,0.016,0,0.043-0.018,0.068c0,0.043,0,0.084-0.019,0.127V8.212v0.016c0,0.25,0.285,0.459,0.62,0.459
		c0.336,0,0.638-0.209,0.638-0.459V8.207v0.014V8.137c0-0.014,0-0.026-0.019-0.041c0-0.014-0.018-0.041-0.033-0.069
		c0-0.015-0.02-0.043-0.035-0.069h-0.02C4.634,7.916,4.617,7.874,4.6,7.832c0-0.084-0.018-0.183-0.034-0.279
		c0.017-0.11,0.034-0.222,0.054-0.35C4.637,7.064,4.672,6.91,4.706,6.758c0.072-0.183,0.141-0.362,0.213-0.56
		c0.052-0.11,0.125-0.224,0.194-0.351C5.15,5.781,5.185,5.709,5.221,5.64c0.088-0.111,0.177-0.238,0.284-0.361
		c0.088-0.07,0.178-0.142,0.283-0.211c0.054-0.026,0.106-0.057,0.16-0.084C5.877,5.43,5.808,5.891,5.735,6.353
		C5.701,6.785,5.648,7.232,5.592,7.677c0,0.405-0.017,0.811-0.033,1.229c-0.02,0.519-0.036,1.047-0.054,1.578
		c-0.019,0.476-0.035,0.948-0.072,1.438c0,0.235-0.017,0.476-0.032,0.712c-0.021,0.057-0.037,0.126-0.055,0.193
		c-0.052,0.058-0.107,0.113-0.179,0.169c-0.141,0.084-0.3,0.168-0.458,0.252C4.582,13.332,4.443,13.43,4.3,13.526
		c-0.036,0.015-0.07,0.041-0.107,0.068c-0.019,0.042-0.035,0.098-0.071,0.153c0.034,0.057,0.071,0.11,0.107,0.168
		c0.051,0.014,0.104,0.041,0.177,0.069c0.053,0,0.125,0,0.195,0.015c0.656-0.111,1.312-0.224,1.984-0.351
		c0.033-0.015,0.073-0.026,0.104-0.041c0.021-0.027,0.035-0.058,0.072-0.1c0-0.042,0-0.083,0.018-0.141
		c0.037-0.223,0.072-0.461,0.106-0.696c0.037-0.279,0.089-0.56,0.145-0.853c0.085-0.418,0.176-0.838,0.265-1.271
		c0.107-0.376,0.211-0.753,0.318-1.146c0-0.068,0.018-0.141,0.034-0.209c0.02-0.043,0.053-0.084,0.09-0.141
		c0.017-0.027,0.034-0.056,0.07-0.084c0.021,0,0.053-0.014,0.089-0.027c0.033,0.016,0.07,0.027,0.124,0.041
		C8.095,9.235,8.181,9.487,8.27,9.739c0.053,0.182,0.105,0.361,0.178,0.543c0.037,0.209,0.09,0.435,0.144,0.656
		c0.086,0.447,0.177,0.896,0.282,1.34c0.036,0.279,0.09,0.572,0.143,0.865c0,0.084,0,0.168,0.017,0.266
		c0,0.027,0.02,0.058,0.036,0.1c0.034,0.025,0.074,0.07,0.105,0.111c0.09,0.014,0.182,0.027,0.267,0.041
		c0.532,0.099,1.063,0.195,1.614,0.294c0.086,0,0.179,0.015,0.284,0.026c0.07-0.014,0.14-0.026,0.231-0.041
		c0.035-0.027,0.072-0.057,0.125-0.099c0-0.028,0.021-0.069,0.035-0.112c0-0.041,0-0.082-0.02-0.125
		c-0.052-0.041-0.105-0.084-0.159-0.125c-0.339-0.209-0.672-0.418-1.03-0.629c-0.019-0.041-0.035-0.084-0.071-0.14
		c0-0.084-0.02-0.167-0.036-0.251c-0.017-0.321-0.031-0.643-0.052-0.977c-0.019-0.406-0.037-0.812-0.072-1.216
		c-0.018-0.42-0.034-0.839-0.053-1.258c-0.019-0.36-0.033-0.737-0.052-1.114c-0.021-0.253-0.036-0.502-0.074-0.769
		C10.117,7.154,10.117,7.167,10.134,7.197"/>
</g>
</svg>
