
<svg width="60px" height="60px" viewBox="20 20 60 60" enable-background="new 20 20 60 60">
<g fill='#666'>
	<path d="M49.128,40.498c-2.854,2.858-2.854,7.492,0,10.35c2.854,2.858,7.479,2.858,10.334,0c2.853-2.858,2.853-7.491,0-10.35
		C56.607,37.64,51.982,37.64,49.128,40.498z M57.965,46.439c0,0.362-0.297,0.657-0.656,0.657h-5.98
		c-0.361,0-0.656-0.295-0.656-0.657v-1.32c0-0.361,0.295-0.657,0.656-0.657h5.98c0.359,0,0.656,0.296,0.656,0.657V46.439z"/>
	<path d="M50,20c-16.568,0-30,13.432-30,30s13.432,30,30,30s30-13.432,30-30S66.568,20,50,20z M62.288,53.678
		c-5.379,5.369-11.554,2.7-11.554,2.7c-1.161-0.501-2.841-0.18-3.734,0.716l-7.823,7.836c-0.894,0.894-2.355,0.894-3.249,0
		l-0.859-0.861c-0.894-0.895-0.894-2.359,0-3.252l7.823-7.837c0.893-0.894,1.256-2.594,0.806-3.776c0,0-2.541-6.672,2.604-11.536
		c4.54-4.292,11.57-4.421,15.985,0C66.699,42.088,66.709,49.263,62.288,53.678z"/>
</g>
</svg>
