<svg version="1.1" id="Layer_1" xmlns="http://www.w3.org/2000/svg" xmlns:xlink="http://www.w3.org/1999/xlink" x="0px" y="0px"
	 width="14px" height="14px" viewBox="43 43 14 14" enable-background="new 43 43 14 14" xml:space="preserve">
<g fill='grey'>
	<g>
		<path d="M54.037,54.002c0.602,0,1.091-0.488,1.091-1.098c0-0.602-0.489-1.09-1.091-1.09c-0.609,0-1.098,0.488-1.098,1.09
			C52.939,53.514,53.428,54.002,54.037,54.002z M45.355,42.998h9.29c0.638,0,1.176,0.467,1.268,1.104l0.283,7.131
			c0,0.085,0.008,0.163,0.008,0.241l0.057,1.834c0.021,0.58-0.178,1.14-0.538,1.579v1.628c0,0.27-0.291,0.481-0.651,0.481H54.03
			c-0.361,0-0.652-0.212-0.652-0.481V55.73h-6.755v0.785c0,0.27-0.291,0.481-0.651,0.481h-1.041c-0.361,0-0.651-0.212-0.651-0.481
			v-1.628c-0.361-0.439-0.56-0.999-0.539-1.579l0.057-1.834c0-0.078,0.007-0.156,0.007-0.241l0.283-7.131
			C44.18,43.465,44.718,42.998,45.355,42.998z M44.874,52.904c0,0.609,0.488,1.098,1.09,1.098c0.609,0,1.098-0.488,1.098-1.098
			c0-0.602-0.489-1.09-1.098-1.09C45.362,51.814,44.874,52.303,44.874,52.904z M54.575,45.144c-1.367-0.262-7.655-0.241-9.142,0
			c-0.248,0-0.46,0.184-0.496,0.432c0,0-0.071,2.889-0.113,4.234c-0.007,0.396,0.269,0.737,0.659,0.8
			c3.031,0.503,5.721,0.468,9.014-0.015c0.396-0.057,0.688-0.403,0.68-0.8c-0.042-1.359-0.113-4.22-0.113-4.22
			C55.028,45.328,54.815,45.144,54.575,45.144z M48.967,44.407h2.067c0.206,0,0.376-0.17,0.376-0.375v-0.028
			c0-0.212-0.17-0.375-0.376-0.375h-2.067c-0.205,0-0.375,0.163-0.375,0.375v0.028C48.591,44.237,48.762,44.407,48.967,44.407z"/>
	</g>
	<g>
	</g>
</g>
</svg>
