
<svg version="1.1" id="Layer_1" xmlns="http://www.w3.org/2000/svg" xmlns:xlink="http://www.w3.org/1999/xlink" x="0px" y="0px"
	 width="14px" height="14px" viewBox="0 0 69.167 90" enable-background="new 0 0 69.167 90" xml:space="preserve">
<path d="M40.24,0.025c4.72,0.394,8.227,4.482,7.867,9.189c-0.392,4.709-4.482,8.217-9.198,7.826
	c-4.709-0.353-8.214-4.479-7.824-9.157C31.439,3.178,35.564-0.332,40.24,0.025z M10.453,80.973l10.974-16.465l2.681-13.389l0,0
	l1.962-19.625c-1.276,0.886-2.613,1.855-3.928,2.874l-2.587,12.938c-0.415,2.072-2.23,3.504-4.266,3.504
	c-0.284,0-0.571-0.029-0.86-0.088c-2.358-0.469-3.888-2.766-3.415-5.124l2.903-14.515c0.198-1.005,0.748-1.906,1.548-2.548
	c5.511-4.407,12.975-9.663,17.237-9.663c3.21,0,7.612,0,11.79,4.179c2.245,2.248,6.622,10.194,8.737,14.154l7.315,2.954
	c2.229,0.903,3.308,3.44,2.409,5.668c-0.906,2.229-3.439,3.307-5.669,2.407l-8.792-3.548c-0.956-0.389-1.748-1.101-2.223-2.015
	c-1.05-2-2.221-4.147-3.354-6.136l-2.353,12.627l11.193,13.986c0.62,0.775,1.027,1.697,1.191,2.672l2.905,17.418
	c0.527,3.166-1.613,6.152-4.775,6.684C50.757,89.973,50.434,90,50.118,90c-2.79,0-5.249-2.014-5.721-4.854l-2.654-15.928
	l-7.533-9.412l-1.62,8.105c-0.146,0.74-0.441,1.447-0.86,2.084L20.116,87.413c-1.118,1.678-2.959,2.584-4.836,2.584
	c-1.109,0-2.226-0.316-3.215-0.977C9.397,87.245,8.673,83.639,10.453,80.973z"/>
</svg>
