<?xml version="1.0" encoding="utf-8"?>
<!-- Generator: Adobe Illustrator 15.0.0, SVG Export Plug-In . SVG Version: 6.00 Build 0)  -->
<!DOCTYPE svg PUBLIC "-//W3C//DTD SVG 1.1//EN" "http://www.w3.org/Graphics/SVG/1.1/DTD/svg11.dtd">
<svg version="1.1" id="Your_Icon" xmlns="http://www.w3.org/2000/svg" xmlns:xlink="http://www.w3.org/1999/xlink" x="0px" y="0px"
	 width="14px" height="14px" viewBox="43 43 14 14" enable-background="new 43 43 14 14" xml:space="preserve">
<g opacity="0.6">
	<path d="M50.009,43L50.009,43L50.009,43L50.009,43z"/>
	<path d="M53.568,53.646c0.709-0.12,1.411-0.896,1.411-1.845v-6.925c0-0.978-0.778-1.875-1.842-1.875h-6.278
		c-1.059,0-1.838,0.897-1.838,1.875v6.925c0,0.949,0.704,1.725,1.409,1.845L44.312,57h1.222l1.515-2.345h5.899L54.465,57h1.223
		L53.568,53.646z M47.932,43.714c0-0.171,0.14-0.313,0.301-0.313h3.535c0.16,0,0.301,0.142,0.301,0.313v0.55
		c0,0.169-0.134,0.317-0.301,0.317h-3.535c-0.17,0-0.301-0.148-0.301-0.317V43.714z M46.822,52.637
		c-0.445,0-0.808-0.381-0.808-0.853c0-0.465,0.362-0.847,0.808-0.847s0.804,0.382,0.804,0.847
		C47.626,52.256,47.267,52.637,46.822,52.637z M46.921,50.12c-0.506,0-0.92-0.366-0.917-0.964v-2.998c0-0.518,0.317-0.97,0.917-0.97
		h6.159c0.596,0,0.915,0.453,0.915,0.97v2.998C54,49.754,53.586,50.12,53.08,50.12H46.921z M52.355,51.784
		c0-0.465,0.358-0.847,0.807-0.847c0.441,0,0.803,0.382,0.803,0.847c0,0.473-0.361,0.853-0.803,0.853
		C52.714,52.637,52.355,52.256,52.355,51.784z"/>
</g>
</svg>
